<svg width="1440" height="2604" viewBox="0 0 1440 2604" fill="none" xmlns="http://www.w3.org/2000/svg">
<g clip-path="url(#clip0)">
<rect width="1440" height="2604" fill="white"/>
<rect width="1440" height="2624" fill="url(#paint0_linear)"/>
<path d="M683.616 -57H-38V756.804C-0.699089 774.092 103.499 804.421 251.169 806.927C435.756 810.06 625.573 711.554 647.012 622.446C668.451 533.339 562.301 497.835 608.317 370.091C654.333 242.346 770.942 239.214 810.16 126.089C841.535 35.5885 738.87 -33.6788 683.616 -57Z" fill="#F7EDE1" stroke="#78B4CD" stroke-width="67"/>
<path d="M-80.5377 1737.38L-84.634 2682.48L1300.5 2722C1334.74 2673.29 1167.73 2493.88 1173.5 2300.5C1180.71 2058.77 1277.26 1725.34 1102 1696.5C926.736 1667.66 1010.82 1901 759.654 1839.65C508.483 1778.29 502.979 1625.54 280.544 1573.21C102.596 1531.35 -34.3223 1665.22 -80.5377 1737.38Z" fill="#F7EDE1" stroke="#78B4CD" stroke-width="67"/>
<path d="M1007.5 226C1007.5 249.5 984.5 318.2 892.5 405C777.5 513.5 598.5 459.5 528 603.5C457.5 747.5 892.5 808.5 892.5 981C892.5 1153.5 557 1224 528 1377.5C499 1531 969 1550 950 1838C934.8 2068.4 662.333 2267 528 2337.5" stroke="#FF0000" stroke-width="60" stroke-dasharray="100 50"/>
</g>
<defs>
<linearGradient id="paint0_linear" x1="720" y1="0" x2="720" y2="2624" gradientUnits="userSpaceOnUse">
<stop stop-color="#006994"/>
<stop offset="1" stop-color="#9CD3DB"/>
</linearGradient>
<clipPath id="clip0">
<rect width="1440" height="2604" fill="white"/>
</clipPath>
</defs>
</svg>
